<svg width="43" height="39" viewBox="0 0 43 39" fill="none" xmlns="http://www.w3.org/2000/svg">
<path d="M18.8169 27.0795C19.6153 27.4104 20.4715 27.583 21.3487 27.583C22.2259 27.583 23.083 27.4104 23.8806 27.0795L23.6603 28.7191C23.6108 29.086 23.868 29.4237 24.235 29.4723C24.2652 29.4765 24.2953 29.4781 24.3255 29.4781C24.6564 29.4781 24.9438 29.2335 24.989 28.8967L25.7431 23.2884L29.0172 24.3097C29.9338 24.5962 30.5253 25.4005 30.5253 26.3573V28.8079C30.5253 29.1782 30.8252 29.4781 31.1955 29.4781C31.5659 29.4781 31.8658 29.1782 31.8658 28.8079V26.3573C31.8658 24.8015 30.9048 23.4961 29.4169 23.0303L25.7632 21.8901H26.1896C27.1104 21.8901 27.8594 21.1411 27.8594 20.2211V17.9155C28.4701 17.6541 28.8999 17.0467 28.8999 16.3412V14.3514C28.8999 13.6468 28.471 13.0402 27.8594 12.7788V11.3127C27.8594 7.72683 24.9388 4.81041 21.3496 4.81041C17.7587 4.81041 14.8373 7.72767 14.8373 11.3127V12.7788C14.2265 13.0402 13.7967 13.646 13.7967 14.3514V16.3412C13.7967 17.0467 14.2257 17.6541 14.8373 17.9155V20.2211C14.8373 21.1411 15.5863 21.8901 16.507 21.8901H16.9351L13.2781 23.0303C11.8136 23.4894 10.83 24.8266 10.83 26.3573V28.8079C10.83 29.1782 11.1299 29.4781 11.5002 29.4781C11.8706 29.4781 12.1705 29.1782 12.1705 28.8079V26.3573C12.1705 25.4005 12.7628 24.597 13.6777 24.3097L16.9544 23.2875L17.7084 28.8958C17.7537 29.2326 18.041 29.4773 18.372 29.4773C18.4013 29.4773 18.4315 29.4756 18.4625 29.4714C18.8294 29.422 19.0866 29.0844 19.0372 28.7182L18.8169 27.0795ZM19.2081 18.9133C19.1822 18.8899 19.1553 18.8681 19.126 18.8488C18.6015 18.4265 18.1994 17.8593 17.9807 17.2075C17.9732 17.1807 17.9648 17.1547 17.9548 17.1296C17.8534 16.8003 17.7981 16.4501 17.7981 16.0874V13.548C19.271 13.4064 20.4422 12.7822 21.3479 11.6553C22.2519 12.7822 23.4232 13.4064 24.896 13.548V16.0874C24.896 16.6722 24.7528 17.2243 24.5006 17.711H21.6596C21.2892 17.711 20.9893 18.011 20.9893 18.3813C20.9893 18.7516 21.2892 19.0515 21.6596 19.0515H23.2908C22.732 19.4185 22.0651 19.6322 21.3487 19.6322C20.5453 19.6322 19.8038 19.3641 19.2081 18.9133ZM15.5067 16.7124C15.3064 16.7124 15.1364 16.5423 15.1364 16.3412V14.3514C15.1364 14.1512 15.3056 13.9828 15.5067 13.9828H16.4584V16.0874C16.4584 16.2993 16.4735 16.5071 16.4995 16.7124H15.5067ZM27.1891 13.9828C27.3894 13.9828 27.5594 14.1512 27.5594 14.3514V16.3412C27.5594 16.5423 27.3902 16.7124 27.1891 16.7124H26.1963C26.2223 16.5079 26.2374 16.2993 26.2374 16.0874V13.9828H27.1891ZM26.1812 12.6423C26.0782 12.4052 25.8419 12.2393 25.5663 12.2393C23.8915 12.2393 22.7697 11.5892 21.9293 10.1314C21.8095 9.92358 21.5884 9.79623 21.3487 9.79623C21.1091 9.79623 20.8879 9.92358 20.7681 10.1314C19.9253 11.5892 18.8026 12.2393 17.1278 12.2393C16.853 12.2393 16.6168 12.4052 16.5129 12.6423H16.2129C16.5146 10.0802 18.7021 8.08626 21.3479 8.08626C23.9929 8.08626 26.1787 10.0802 26.4803 12.6423H26.1812ZM26.1888 20.5504H24.6078V19.7252C24.8357 19.5207 25.0443 19.2954 25.2312 19.0515H26.5189V20.222C26.5189 20.4029 26.3706 20.5504 26.1888 20.5504ZM21.3487 6.15091C23.0512 6.15091 24.5634 6.97699 25.506 8.24879C24.3774 7.31128 22.928 6.74659 21.3487 6.74659C19.7686 6.74659 18.3184 7.31212 17.189 8.25047C18.1324 6.97783 19.6455 6.15091 21.3487 6.15091ZM16.1769 20.222V18.0529H16.8731C17.1563 18.6938 17.5727 19.2627 18.088 19.7235V20.5496H16.507C16.3277 20.5504 16.1769 20.4004 16.1769 20.222ZM18.3284 22.8602C18.9861 22.6525 19.4285 22.0492 19.4285 21.3606V20.5797C20.0183 20.8327 20.6676 20.9727 21.3496 20.9727C22.0299 20.9727 22.6783 20.8327 23.2682 20.5806V21.3606C23.2682 22.0492 23.7114 22.6525 24.3732 22.8611L24.4461 22.8837L24.0984 25.4692C23.2707 25.9761 22.3265 26.2425 21.3504 26.2425C20.376 26.2425 19.4318 25.9761 18.6024 25.47L18.2547 22.8837L18.3284 22.8602ZM17.3473 31.7226L14.8733 31.1923C14.2332 31.0524 13.5973 31.2359 13.1256 31.6958L12.5936 32.2169C10.9213 31.2442 9.54312 29.8677 8.56958 28.1963L9.09153 27.6668C9.54898 27.1984 9.7333 26.5634 9.59506 25.9233L9.06305 23.4484C8.87035 22.5578 8.09956 21.9361 7.1897 21.9361H4.2096C3.65916 21.9361 3.17071 22.1506 2.79537 22.5578C2.42422 22.965 2.25247 23.4693 2.29939 24.0198C2.6253 27.7313 4.26322 31.2308 6.90987 33.875C9.55652 36.5183 13.0594 38.1537 16.7751 38.4804H16.7768C16.8363 38.4855 16.8949 38.488 16.9536 38.488C17.4361 38.488 17.8777 38.3154 18.2371 37.9853C18.646 37.6133 18.8621 37.124 18.8621 36.5719V33.5951C18.8629 32.6819 18.2396 31.912 17.3473 31.7226ZM17.5224 36.5711C17.5224 36.7428 17.463 36.8769 17.3331 36.995C17.2049 37.1123 17.07 37.1584 16.8916 37.1433C9.82965 36.5216 4.254 30.9518 3.63486 23.9025C3.61978 23.7274 3.66586 23.5908 3.78315 23.4626C3.90212 23.3336 4.03366 23.2758 4.2096 23.2758H7.1897C7.46785 23.2758 7.69406 23.4593 7.75271 23.7307L8.28472 26.2048C8.32829 26.4059 8.27718 26.5818 8.13475 26.7276L7.26343 27.6123C7.059 27.8201 7.01208 28.1368 7.14781 28.3948C8.3308 30.6427 10.1455 32.4549 12.395 33.6379C12.6531 33.7736 12.9681 33.7267 13.1759 33.5231L14.0631 32.6534C14.2114 32.5085 14.3882 32.4582 14.5893 32.5018L17.0675 33.033C17.3398 33.0908 17.5224 33.3162 17.5224 33.5943V36.5711ZM41.2862 0.192383H30.7632C29.8534 0.192383 29.1086 0.903686 29.0533 1.79763C26.6177 0.731934 24.0247 0.192383 21.3278 0.192383C16.1719 0.192383 11.3243 2.19811 7.67898 5.83924C4.44335 9.07069 2.49962 13.2472 2.10166 17.7454L1.28563 16.7886C1.04518 16.5071 0.622085 16.4736 0.34058 16.7141C0.0590748 16.9545 0.0255623 17.3776 0.266015 17.6591L2.18461 19.9078C2.31698 20.0628 2.50549 20.1432 2.69483 20.1432C2.84815 20.1432 3.00231 20.0904 3.12882 19.9832L5.38002 18.0688C5.66237 17.8292 5.69672 17.4061 5.45626 17.1237C5.21665 16.8414 4.79355 16.8079 4.51121 17.0475L3.42792 17.9683C4.19536 8.77745 11.9292 1.53288 21.327 1.53288C24.0339 1.53288 26.6286 2.11768 29.0474 3.26967V8.24628C29.0474 9.18965 29.8165 9.95793 30.7624 9.95793H33.0882L32.5779 12.6993C32.5293 12.9606 32.6399 13.2262 32.8594 13.3754C32.9734 13.4533 33.1049 13.4918 33.2373 13.4918C33.3605 13.4918 33.4836 13.4583 33.5925 13.3904L37.2295 11.12C38.5809 13.6803 39.293 16.5532 39.293 19.4721C39.293 29.365 31.2341 37.4139 21.3278 37.4139C20.9575 37.4139 20.6575 37.7138 20.6575 38.0841C20.6575 38.4545 20.9575 38.7544 21.3278 38.7544C26.4845 38.7544 31.333 36.7487 34.9791 33.1075C38.6253 29.4656 40.6335 24.623 40.6335 19.4721C40.6335 16.3018 39.8527 13.1827 38.3697 10.4078L39.0911 9.95709H41.2862C42.2321 9.95709 43.0012 9.18965 43.0012 8.24544V1.9032C43.0012 0.960657 42.2321 0.192383 41.2862 0.192383ZM41.6607 8.24628C41.6607 8.44735 41.4889 8.61743 41.2862 8.61743H38.8992C38.7736 8.61743 38.6504 8.65262 38.544 8.7188L34.1748 11.4459L34.5535 9.41C34.5895 9.21395 34.5376 9.01204 34.4102 8.85872C34.2829 8.7054 34.0944 8.61659 33.895 8.61659H30.7624C30.5597 8.61659 30.3879 8.44652 30.3879 8.24544V1.9032C30.3879 1.69877 30.5563 1.53205 30.7624 1.53205H41.2853C41.4923 1.53205 41.6598 1.69877 41.6598 1.9032V8.24628H41.6607ZM40.6075 3.76398C40.6075 4.13429 40.3076 4.43423 39.9373 4.43423H32.1121C31.7418 4.43423 31.4419 4.13429 31.4419 3.76398C31.4419 3.39367 31.7418 3.09373 32.1121 3.09373H39.9373C40.3076 3.09373 40.6075 3.39367 40.6075 3.76398ZM36.6933 6.38717C36.6933 6.75748 36.3933 7.05742 36.023 7.05742H32.1113C31.741 7.05742 31.441 6.75748 31.441 6.38717C31.441 6.01686 31.741 5.71692 32.1113 5.71692H36.023C36.3933 5.71692 36.6933 6.01686 36.6933 6.38717ZM40.6075 6.38717C40.6075 6.75748 40.3076 7.05742 39.9373 7.05742H38.42C38.0497 7.05742 37.7498 6.75748 37.7498 6.38717C37.7498 6.01686 38.0497 5.71692 38.42 5.71692H39.9373C40.3076 5.71692 40.6075 6.01686 40.6075 6.38717Z" fill="white"/>
</svg>
